<?xml version="1.0" encoding="UTF-8"?>
<svg id="Layer_1" data-name="Layer 1" xmlns="http://www.w3.org/2000/svg" viewBox="0 0 1075 388.79">
  <defs>
    <style>
      .cls-1 {
        letter-spacing: -.02em;
      }

      .cls-2 {
        font-size: 36px;
      }

      .cls-2, .cls-3, .cls-4 {
        font-family: Helvetica-Bold, Helvetica;
        font-weight: 700;
      }

      .cls-3, .cls-5 {
        font-size: 60px;
      }

      .cls-6 {
        font-family: MicrosoftSansSerif, 'Microsoft Sans Serif';
      }

      .cls-7 {
        fill: #4a683b;
      }

      .cls-7, .cls-8 {
        stroke-width: 0px;
      }

      .cls-8 {
        fill: #7da967;
      }
    </style>
  </defs>
  <text/>
  <path class="cls-8" d="m1075,360.77c-8.04,2.34-20.65,5.24-36.22,5.44-43.53.57-59.65-20.57-93.01-26.67-59.84-10.94-96.64,40.87-187.98,48.43-85.34,7.07-98.95-34.37-202.66-36.46-117.71-2.38-164.44,49.69-237.91,32.11-52.04-12.46-45.86-42.72-110.63-53.33-5.56-.91-68.92-10.8-106.09,6.96-16.94,8.1-18.16,17.02-37.83,22.42-21.46,5.9-46.1,2.43-62.66-1.09v-229.11c30.61,8.28,78.23,18.24,136.09,17.41,110.27-1.58,140.38-40.67,233.01-38.09,94.4,2.62,101.92,44.29,189.94,44.08,99.37-.24,118.27-53.42,209.52-50.07,84.81,3.12,102.29,50.31,189.94,46.26,0,0,8.67-.4,116.51-19.59v231.29Z"/>
  <g>
    <path class="cls-7" d="m355.05,109.07c-.03-1.27-.6-35.69,6.74-55.44C375.98,15.44,434.25,2.55,435.39,2.3c0,0,.01,0,.01,0-2.01,4.62-22.74,50.73-58.99,52.87-2.51.15-5.26.09-8.24-.28-7.62,19.05-12.9,52.85-13.12,54.19Z"/>
    <path class="cls-8" d="m357.54,46.94c-1.98-10.53.08-17.6,1.9-21.66,8.86-19.74,39.62-30.22,75.94-22.98-1.16.15-60.33,7.85-77.84,44.64Z"/>
  </g>
  <g>
    <path class="cls-7" d="m355.91,101.61c-.1-.88-2.83-24.56-9.67-37.45-13.22-24.93-54.4-28.48-55.2-28.55,0,0-.01,0-.01,0,1.8,2.99,20.23,32.76,45.32,30.93,1.74-.13,3.62-.42,5.63-.94,6.96,12.39,13.67,35.11,13.94,36.01Z"/>
    <path class="cls-8" d="m348.54,59.17c.4-7.41-1.66-12.08-3.28-14.7-7.88-12.75-29.95-17.15-54.23-8.87.81,0,42.14-.1,57.51,23.57Z"/>
  </g>
  <g>
    <path class="cls-7" d="m951.48,149.58c-.03-1.27-.6-35.69,6.74-55.44,14.19-38.19,72.46-51.08,73.6-51.34,0,0,.01,0,.01,0-2.01,4.62-22.74,50.73-58.99,52.87-2.51.15-5.26.09-8.24-.28-7.62,19.05-12.9,52.85-13.12,54.19Z"/>
    <path class="cls-8" d="m953.97,87.45c-1.98-10.53.08-17.6,1.9-21.66,8.86-19.74,39.62-30.22,75.94-22.98-1.16.15-60.33,7.85-77.84,44.64Z"/>
  </g>
  <g>
    <path class="cls-7" d="m952.33,142.12c-.1-.88-2.83-24.56-9.67-37.45-13.22-24.93-54.4-28.48-55.2-28.55,0,0-.01,0-.01,0,1.8,2.99,20.23,32.76,45.32,30.93,1.74-.13,3.62-.42,5.63-.94,6.96,12.39,13.67,35.11,13.94,36.01Z"/>
    <path class="cls-8" d="m944.97,99.68c.4-7.41-1.66-12.08-3.28-14.7-7.88-12.75-29.95-17.15-54.23-8.87.81,0,42.14-.1,57.51,23.57Z"/>
  </g>
  <text class="cls-5" transform="translate(77.79 237.04)"><tspan class="cls-4"><tspan x="0" y="0">1400 </tspan><tspan class="cls-1" x="150.15" y="0">L</tspan></tspan><tspan class="cls-6" x="14.88" y="72"> </tspan><tspan class="cls-4" x="30.82" y="72">vand</tspan></text>
  <text class="cls-3" transform="translate(693.95 237.04)"><tspan x="0" y="0">15 kg</tspan><tspan x="31.71" y="72">CO</tspan></text>
  <text class="cls-2" transform="translate(823.98 296.26)"><tspan x="0" y="0">2</tspan></text>
</svg>