<?xml version="1.0" encoding="UTF-8"?><svg id="Layer_1" xmlns="http://www.w3.org/2000/svg" width="1086.5" height="1022" viewBox="0 0 1086.5 1022"><defs><style>.cls-1{fill:none;stroke:#7da967;stroke-miterlimit:10;stroke-width:30px;}</style></defs><path class="cls-1" d="m209.26,189.69c-1.36,20.8-6.62,46.83-25.65,59.33-18.59,12.22-34.88,1.22-59.58,7.37-49.02,12.2-90.61,69.39-73.35,102.94,15.99,31.07,69.64,16.94,114,58.39,24.26,22.67,45.2,61.46,29.71,91.4-16.74,32.37-58.11,19.7-87.14,57.17-32.25,41.63-15.19,101.15-4.19,123.13.44.88.83,1.66,1.42,2.7,16.87,29.75,63.58,39.87,74.56,42.24,57.67,12.49,97.22-5.38,103.29,4.67,6.71,11.11-44.79,27.68-52.22,65.05-5.19,26.12,13.92,48.43,27.33,64.08,20.09,23.45,69.2,65.6,109.25,56.51,34.7-7.88,29.62-46.75,72.4-58.46,21.09-5.77,50.38-4,68.86,8.46,39.33,26.5-.3,81.16,32.09,103.66,29.91,20.78,109.95,6.31,149.58-32.1,57.45-55.67,18.41-150.4,37.94-153.63,13.69-2.26,21.15,46.23,67.7,62.18,39.2,13.43,91.78-1.14,122.28-25.49,37.88-30.24,37.95-72.58,37.96-82,.08-52.16-40.63-83.31-19.03-105.54,3.41-3.51,2.52-.77,33.24-19.8,7.77-4.82,19.89-12.46,37.58-21.48,2.13-1.08,2-.98,2.39-1.21,30.4-17.57,30.06-71.94-2.85-107.11-30.18-32.26-73.85-30.01-74.63-47.81-.72-16.43,37-18.83,75.42-55.18,13.09-12.39,37.93-35.9,37.97-66.93.02-15.49-8.71-29.26-26.16-56.79-24.49-38.63-36.54-58.26-57.75-66.53-43.92-17.15-90.92-4.48-99.96-2.04-30.94,8.34-36.31,19.96-64.75,21.86-3.87.26-43.8,2.56-60.54-14.54-17-17.35,9.34-34.84,2.79-69.68-.69-3.68-9.36-44.96-57.75-66.53-27.44-12.24-68.43-18.49-102.77-7.24-47.69,15.62-42.88,54.54-97.11,71.79-14.49,4.61-35.24,11.21-53.43,4.27-37-14.1-14.37-65.48-53.6-89.51-28.6-17.52-77.12-12.56-108.4,4.2-10.87,5.83-19.06,12.75-25.3,19.88-7.85,8.97-13.89,19.48-19.73,37.33-5.29,16.16-12.17,43.6-11.86,81Z"/></svg>