<?xml version="1.0" encoding="UTF-8"?>
<svg id="Layer_1" data-name="Layer 1" xmlns="http://www.w3.org/2000/svg" viewBox="0 0 1075 286.12">
  <defs>
    <style>
      .cls-1 {
        fill: #ffa665;
        stroke-width: 0px;
      }
    </style>
  </defs>
  <path class="cls-1" d="m1075,258.1c-8.04,2.34-20.65,5.24-36.22,5.44-43.53.57-59.65-20.57-93.01-26.67-59.84-10.94-96.64,40.87-187.98,48.43-85.34,7.07-98.95-34.37-202.66-36.46-117.71-2.38-164.44,49.69-237.91,32.11-52.04-12.46-45.86-42.72-110.63-53.33-5.56-.91-68.92-10.8-106.09,6.96-16.94,8.1-18.16,17.02-37.83,22.42-21.46,5.9-46.1,2.43-62.66-1.09V26.82c30.61,8.28,78.23,18.24,136.09,17.41,110.27-1.58,140.38-40.67,233.01-38.09,94.4,2.62,101.92,44.29,189.94,44.08,99.37-.24,118.27-53.42,209.52-50.07,84.81,3.12,102.29,50.31,189.94,46.26,0,0,8.67-.4,116.51-19.59v231.29Z"/>
</svg>