<?xml version="1.0" encoding="UTF-8"?>
<svg id="Layer_2" data-name="Layer 2" xmlns="http://www.w3.org/2000/svg" viewBox="0 0 1716.25 5524.09">
  <defs>
    <style>
      .cls-1 {
        fill: none;
        stroke: #000;
        stroke-miterlimit: 10;
        stroke-width: 10px;
      }
    </style>
  </defs>
  <g id="Layer_1-2" data-name="Layer 1">
    <path class="cls-1" d="M1031.95,5S219.23,37.23,170.25,248.02c-10.65,45.83,14.48,92.18,63.48,120.51,80.13,46.34,268.39,119.51,685,152.29,25.51,2.01,51.13,3.16,76.78,3.4,225.63,2.14,1476.11,31.83-570.85,434.63-25.62,5.04-51.79,8.36-78.2,9.84-87.04,4.9-246.91-.98-205.4-116.43,22.02-61.24,85.77-108.91,166.74-126.42,154.33-33.39,425.84-64.3,369.68,149.25-32.02,121.75-144.77,222.69-297.86,268.64-155.18,46.58-341.67,123.91-245.32,207.71,133.33,115.95,623.87-9.11,759.2-46.58,29.49-8.17,59.52-15.17,89.99-20.94,207.23-39.23,897.27-148.92,304.57,259-163.14,112.28-385.13,162.97-603.55,137.61-371.16-43.1-906.04-66.98-576.65,183.51,329.37,250.48,1455.1-68.16,1315,305.25-63.61,169.52-637.99,209.88-1054.35,264.42-263.43,34.51-188.99,470.15,349.34,401.14,447.4-57.36,643.19-34.37,718.75,74.28,0,0,223.44,288.05-383.55,338.26-606.98,50.21-916.03,113.17-866.91,358.93,49.12,245.76,1466.88,32.17,1179.17,404.77-287.7,372.6-1196.43-147.98-1126.26,229.9,70.17,377.89,664,242.3,951.95,267.05,222.06,19.09,328.68,353.96-169.54,427.95-498.22,73.99-971.71,73.86-613.83,400.43,460.03,419.78,1147.14-38.39,1305.02,125.45"/>
  </g>
</svg>