<svg width="216" height="318" viewBox="0 0 216 318" fill="none" xmlns="http://www.w3.org/2000/svg">
<path d="M18.2344 10.2656C20.2031 7.20313 22.4375 4.8125 24.9375 3.09375C27.4688 1.375 29.5469 0.515625 31.1719 0.515625C32.7969 0.515625 33.6094 0.84375 33.6094 1.5C33.6094 1.75 33.2344 1.96875 32.4844 2.15625H32.3906C26.3594 3.53125 21.625 9.51562 18.1875 20.1094C17.4375 22.4844 15.7031 29.3281 12.9844 40.6406C10.2969 51.9219 8.84375 57.9531 8.625 58.7344L8.15625 60.4688C14.8125 60.2188 21.3438 60.0938 27.75 60.0938C28.75 60.0938 29.5156 60.7344 30.0469 62.0156C30.2031 62.4219 30.2812 62.7812 30.2812 63.0938C30.25 63.7188 28.7031 64.0469 25.6406 64.0781C22.6094 64.1094 18.2188 64.3125 12.4688 64.6875C6.71875 65.0625 3.76562 65.25 3.60938 65.25C2.48438 65.25 1.92188 64.8594 1.92188 64.0781C1.92188 63.2969 2.28125 61.7344 3 59.3906C3.75 57.0156 5.21875 51.2344 7.40625 42.0469L8.85938 36.0938C11.8281 24.0625 14.9531 15.4531 18.2344 10.2656ZM43.0312 23.3906C44.3125 23.8594 44.9688 24.4844 45 25.2656C45 25.5469 44.7812 26.3125 44.3438 27.5625C44.3438 27.5625 43.75 29.2656 42.5625 32.6719C38.375 44.6719 36.0156 52.6094 35.4844 56.4844C37.7969 52.9531 40.5781 47.9219 43.8281 41.3906C47.1094 34.8281 49.0938 30.9062 49.7812 29.625C50.4688 28.3438 50.9844 27.25 51.3281 26.3438C51.7031 25.4375 52.0469 24.9375 52.3594 24.8438C52.6719 24.7188 53.25 24.6562 54.0938 24.6562C55.3438 24.6562 55.9688 25.2344 55.9688 26.3906C55.875 26.9844 55.2031 28.9375 53.9531 32.25C52.7344 35.5312 51.4062 39.9375 49.9688 45.4688C48.5625 50.9688 47.8594 54.8438 47.8594 57.0938C47.8906 59.3125 48.1094 60.4531 48.5156 60.5156C49.8906 60.5156 52.3594 58.5625 55.9219 54.6562C59.5156 50.7188 62.1406 47.1719 63.7969 44.0156C64.4844 42.7656 65.1406 42.125 65.7656 42.0938C66.0781 42.1562 66.25 42.4062 66.2812 42.8438C66.2812 45.4688 64.5312 48.8906 61.0312 53.1094C57.5625 57.3281 54.5781 60.2969 52.0781 62.0156L51.1406 62.625C50.0781 63.1875 49.2969 63.4688 48.7969 63.4688H48C45.25 63 43.8438 60.6875 43.7812 56.5312C43.7812 54.4688 44.0938 52.3438 44.7188 50.1562L45.75 46.3594C42.6875 53.0781 40.125 57.7031 38.0625 60.2344C36.0312 62.7344 34.1875 63.9844 32.5312 63.9844C31.2812 63.9219 30.6562 62.7969 30.6562 60.6094C30.6562 56.9844 31.9375 50.9062 34.5 42.375C38.125 30.3438 40.4062 23.9844 41.3438 23.2969C41.5312 23.2031 41.75 23.1562 42 23.1562C42.25 23.1562 42.5938 23.2344 43.0312 23.3906ZM96.8438 45.4688C96.8438 47.0312 95.0625 49.9062 91.5 54.0938C87.9375 58.2812 85.2656 61.0469 83.4844 62.3906C81.7344 63.7031 79.9688 64.3594 78.1875 64.3594C74.875 64.3281 73.2188 61.7031 73.2188 56.4844C73.2188 54.0156 73.7188 50.1562 74.7188 44.9062C75.7188 39.625 76.25 36.75 76.3125 36.2812C73 37.375 69.8281 41.5312 66.7969 48.75C66.1719 50.2812 65.1719 52.8906 63.7969 56.5781C62.4531 60.2344 61.5 62.4062 60.9375 63.0938C60.25 63.9062 59.3438 64.3125 58.2188 64.3125C57.0938 64.3125 56.5156 63.9062 56.4844 63.0938C56.4844 61.5938 61.5 49.1562 71.5312 25.7812C73.0938 22.0938 74 20.0312 74.25 19.5938C74.7812 18.5625 75.8906 18.6094 77.5781 19.7344C78.0781 20.0781 78.3281 20.4219 78.3281 20.7656C78.3594 21.1094 78.125 21.6562 77.625 22.4062C76.4688 24.2188 75.4375 26.3281 74.5312 28.7344L72.75 33.375L74.25 31.5469C75.5938 29.8906 76.6719 28.6406 77.4844 27.7969C78.2969 26.9219 78.9688 26.4375 79.5 26.3438C80.0625 26.2188 80.6406 26.1562 81.2344 26.1562C82.5156 26.25 83.1875 26.9375 83.25 28.2188C83.25 28.8438 83.0312 29.6875 82.5938 30.75C80.625 35.2812 79.1094 42.1406 78.0469 51.3281C77.7656 53.9531 77.625 56.2656 77.625 58.2656C77.6562 60.2344 78.1406 61.2344 79.0781 61.2656C80.3906 61.2656 82.7812 59.2344 86.25 55.1719C89.7188 51.0781 92.2188 47.6875 93.75 45C94.1562 44.3438 94.7344 44 95.4844 43.9688C96.2656 44.1562 96.7188 44.6562 96.8438 45.4688ZM113.625 32.3906C108.625 33.2344 104.266 36.5156 100.547 42.2344C96.9219 47.7969 95.0156 53.2969 94.8281 58.7344C101.984 49.2969 108.25 40.5156 113.625 32.3906ZM111.469 28.4062L114.234 28.7812C114.672 28.7812 115.125 28.5312 115.594 28.0312C116.094 27.5312 116.719 27.2812 117.469 27.2812C118.25 27.2812 118.859 27.4844 119.297 27.8906C119.766 28.2969 120 28.6562 120 28.9688C120 29.25 119.844 29.7344 119.531 30.4219C119.219 31.1094 119.031 31.5625 118.969 31.7812C114.812 44.8125 112.734 53.125 112.734 56.7188C112.766 57.9688 113.047 58.6094 113.578 58.6406C115.484 58.6406 118.469 56.1406 122.531 51.1406C125.25 47.7969 127 45.3438 127.781 43.7812C128.594 42.2188 129.234 41.3906 129.703 41.2969C129.797 41.2969 129.875 41.2812 129.938 41.25C130.5 41.3125 130.797 41.6406 130.828 42.2344C130.828 43.3594 129.531 45.8906 126.938 49.8281C121.406 58.2656 116.625 62.4844 112.594 62.4844C109.688 62.4844 108.234 60.4531 108.234 56.3906C108.234 54.4531 108.625 52.0469 109.406 49.1719C110.188 46.2656 110.656 44.4531 110.812 43.7344C110.094 44.6719 107.688 48.0781 103.594 53.9531C99.5 59.8281 96.5625 63.2969 94.7812 64.3594C94.2188 64.6719 93.7344 64.8438 93.3281 64.875C91.5469 64.875 90.25 64.1719 89.4375 62.7656C89.0625 62.0781 88.875 61.0938 88.875 59.8125C88.8438 58.5 89.7969 55.5 91.7344 50.8125C94.8594 43.25 98.4062 37.4219 102.375 33.3281C105.5 30.1406 108.531 28.5 111.469 28.4062ZM25.4062 177L22.0312 175.781C19.75 175.781 17.2344 176.953 14.4844 179.297C14.0781 179.672 13.0312 180.625 11.3438 182.156C8.375 184.875 5.6875 186.234 3.28125 186.234C1.84375 186.234 0.890625 185.188 0.421875 183.094C0.296875 182.5 0.234375 181.891 0.234375 181.266C0.234375 178.922 0.90625 176.797 2.25 174.891C2.59375 174.297 6.59375 169.453 14.25 160.359C21.9062 151.234 26.5625 145.156 28.2188 142.125C29.9062 139.094 30.75 136.844 30.75 135.375V135.094C26.9375 136.344 23.2344 138.359 19.6406 141.141C18.8281 141.797 17.8438 142.125 16.6875 142.125C15.5312 142.094 14.9375 141.719 14.9062 141C14.9375 140.25 15.5938 139.297 16.875 138.141C21.9062 133.734 26.0781 131.516 29.3906 131.484C31.4219 131.484 33.0156 132.125 34.1719 133.406C35.3281 134.688 35.9062 135.938 35.9062 137.156C35.9062 140.062 33.6406 144.234 29.1094 149.672C28.6719 150.172 28.1406 150.812 27.5156 151.594C26.8906 152.344 26.4688 152.844 26.25 153.094L5.71875 177.891C13.4062 175.391 18.7031 174.156 21.6094 174.188C24.5156 174.188 25.9844 174.922 26.0156 176.391C25.9531 176.766 25.75 176.969 25.4062 177ZM47.4375 138.375L43.9219 139.266C43.2031 139.234 42.8125 138.891 42.75 138.234C42.75 136.734 43.3906 135.781 44.6719 135.375C53.4219 132.719 58.4688 131.391 59.8125 131.391C61.1562 131.391 62.4688 131.922 63.75 132.984C65.0312 134.047 65.6562 135.609 65.625 137.672C65.625 139.703 64.1875 142.688 61.3125 146.625C60.8125 147.312 59.2188 149.266 56.5312 152.484L35.4375 177.891C35.3125 178.047 34.6875 179.547 33.5625 182.391C32.4688 185.203 31.5938 186.609 30.9375 186.609C30.3125 186.578 30 184.797 30 181.266C30.125 178.828 30.8906 176.578 32.2969 174.516C34.0781 172.172 37.4375 168.062 42.375 162.188L51.5625 151.125C57.5312 143.562 60.5156 138.312 60.5156 135.375V135.094C60.1094 135.188 55.75 136.281 47.4375 138.375ZM112.078 144.938C107.734 144.938 105.562 142.812 105.562 138.562C105.562 138 105.703 137.422 105.984 136.828C107.047 134.672 109.375 133.594 112.969 133.594C113.906 133.594 114.734 133.75 115.453 134.062C117.359 134.875 118.328 136.578 118.359 139.172C118.359 140.422 118 141.547 117.281 142.547C116.094 144.141 114.359 144.938 112.078 144.938ZM115.125 139.359C115.125 137.328 114.109 136.312 112.078 136.312C111.047 136.312 110.094 136.547 109.219 137.016C108.375 137.453 107.953 138.109 107.953 138.984C107.953 141.391 109.156 142.594 111.562 142.594C112.031 142.594 112.484 142.531 112.922 142.406C114.391 141.938 115.125 140.922 115.125 139.359ZM109.031 152.391C104.031 153.234 99.6719 156.516 95.9531 162.234C92.3281 167.797 90.4219 173.297 90.2344 178.734C97.3906 169.297 103.656 160.516 109.031 152.391ZM106.875 148.406L109.641 148.781C110.078 148.781 110.531 148.531 111 148.031C111.5 147.531 112.125 147.281 112.875 147.281C113.656 147.281 114.266 147.484 114.703 147.891C115.172 148.297 115.406 148.656 115.406 148.969C115.406 149.25 115.25 149.734 114.938 150.422C114.625 151.109 114.438 151.562 114.375 151.781C110.219 164.812 108.141 173.125 108.141 176.719C108.172 177.969 108.453 178.609 108.984 178.641C110.891 178.641 113.875 176.141 117.938 171.141C120.656 167.797 122.406 165.344 123.188 163.781C124 162.219 124.641 161.391 125.109 161.297C125.203 161.297 125.281 161.281 125.344 161.25C125.906 161.312 126.203 161.641 126.234 162.234C126.234 163.359 124.938 165.891 122.344 169.828C116.812 178.266 112.031 182.484 108 182.484C105.094 182.484 103.641 180.453 103.641 176.391C103.641 174.453 104.031 172.047 104.812 169.172C105.594 166.266 106.062 164.453 106.219 163.734C105.5 164.672 103.094 168.078 99 173.953C94.9062 179.828 91.9688 183.297 90.1875 184.359C89.625 184.672 89.1406 184.844 88.7344 184.875C86.9531 184.875 85.6562 184.172 84.8438 182.766C84.4688 182.078 84.2812 181.094 84.2812 179.812C84.25 178.5 85.2031 175.5 87.1406 170.812C90.2656 163.25 93.8125 157.422 97.7812 153.328C100.906 150.141 103.938 148.5 106.875 148.406ZM139.125 153.516L139.031 154.125L138.938 154.688C138.938 155.438 137.844 158.438 135.656 163.688C133.438 168.938 132.344 172.656 132.375 174.844C132.438 178.562 133.344 180.438 135.094 180.469C136.844 180.469 139.406 178.516 142.781 174.609C146.844 169.922 149.328 166.391 150.234 164.016C151.141 161.672 151.844 160.5 152.344 160.5C152.75 160.531 152.969 160.969 153 161.812C153 162.625 152.906 163.25 152.719 163.688L152.25 164.953C150.906 168.391 148.797 171.969 145.922 175.688C141.766 181.156 138.062 183.891 134.812 183.891C133.781 183.891 132.844 183.625 132 183.094C129.875 181.75 128.812 179.219 128.812 175.5C128.812 174.281 129.078 172.406 129.609 169.875C130.172 167.344 130.438 165.984 130.406 165.797C130.406 165.578 130.125 165.344 129.562 165.094C128.438 164.594 127.688 164.531 127.312 164.906C127 165.344 125.609 168.719 123.141 175.031C120.703 181.344 119.031 184.5 118.125 184.5C117.844 184.5 117.312 184.312 116.531 183.938C115.719 183.562 115.312 183.047 115.312 182.391C115.312 182.266 115.719 181.312 116.531 179.531L119.109 173.578C120.922 169.391 123.047 163.812 125.484 156.844L131.719 139.219C131.875 138.781 132.375 138.547 133.219 138.516L134.438 138.469C135.938 138.469 136.688 139.016 136.688 140.109C136.688 140.641 135.875 142.984 134.25 147.141C132.625 151.297 131.578 154.5 131.109 156.75L130.969 158.156C130.969 158.562 131.047 158.797 131.203 158.859C131.297 158.828 131.688 158.141 132.375 156.797L133.594 154.406C133.781 154.125 133.969 153.75 134.156 153.281C134.844 152 135.656 151.359 136.594 151.359C138.219 151.391 139.062 152.062 139.125 153.375V153.516ZM18.8438 258.375L16.7344 257.344C17.2969 253.812 18.9531 251.516 21.7031 250.453C22.5781 250.141 23.5 249.984 24.4688 249.984C27.1562 249.984 29.5156 251 31.5469 253.031C33.5781 255.031 34.5938 257.281 34.5938 259.781C34.625 263.031 33.9375 266.781 32.5312 271.031C29.1562 281.125 23.1875 290.938 14.625 300.469L11.3906 303.891C10.1719 304.984 9.34375 305.562 8.90625 305.625C7.5625 305.594 6.26562 304.297 5.01562 301.734C5.42188 300.578 7.45312 294.078 11.1094 282.234C14.7969 270.391 17.375 262.438 18.8438 258.375ZM23.0156 255.234C23.0156 257.828 22.5156 260.766 21.5156 264.047C20.5469 267.297 19.8438 269.625 19.4062 271.031C19 272.406 17.7969 276.031 15.7969 281.906C13.8281 287.781 12.3594 292.641 11.3906 296.484C13.7969 293.953 16.1562 290.922 18.4688 287.391C18.5938 287.203 18.7031 287.047 18.7969 286.922C25.9219 275.891 29.4844 265.531 29.4844 255.844C29.4844 254.75 29.1875 254.109 28.5938 253.922C28.4062 253.891 28.2188 253.875 28.0312 253.875C26.0625 253.906 24.3906 254.359 23.0156 255.234ZM53.1562 272.391C48.1562 273.234 43.7969 276.516 40.0781 282.234C36.4531 287.797 34.5469 293.297 34.3594 298.734C41.5156 289.297 47.7812 280.516 53.1562 272.391ZM51 268.406L53.7656 268.781C54.2031 268.781 54.6562 268.531 55.125 268.031C55.625 267.531 56.25 267.281 57 267.281C57.7812 267.281 58.3906 267.484 58.8281 267.891C59.2969 268.297 59.5312 268.656 59.5312 268.969C59.5312 269.25 59.375 269.734 59.0625 270.422C58.75 271.109 58.5625 271.562 58.5 271.781C54.3438 284.812 52.2656 293.125 52.2656 296.719C52.2969 297.969 52.5781 298.609 53.1094 298.641C55.0156 298.641 58 296.141 62.0625 291.141C64.7812 287.797 66.5312 285.344 67.3125 283.781C68.125 282.219 68.7656 281.391 69.2344 281.297C69.3281 281.297 69.4062 281.281 69.4688 281.25C70.0312 281.312 70.3281 281.641 70.3594 282.234C70.3594 283.359 69.0625 285.891 66.4688 289.828C60.9375 298.266 56.1562 302.484 52.125 302.484C49.2188 302.484 47.7656 300.453 47.7656 296.391C47.7656 294.453 48.1562 292.047 48.9375 289.172C49.7188 286.266 50.1875 284.453 50.3438 283.734C49.625 284.672 47.2188 288.078 43.125 293.953C39.0312 299.828 36.0938 303.297 34.3125 304.359C33.75 304.672 33.2656 304.844 32.8594 304.875C31.0781 304.875 29.7812 304.172 28.9688 302.766C28.5938 302.078 28.4062 301.094 28.4062 299.812C28.375 298.5 29.3281 295.5 31.2656 290.812C34.3906 283.25 37.9375 277.422 41.9062 273.328C45.0312 270.141 48.0625 268.5 51 268.406ZM99.2812 285.469C99.2812 287.031 97.5 289.906 93.9375 294.094C90.375 298.281 87.7031 301.047 85.9219 302.391C84.1719 303.703 82.4062 304.359 80.625 304.359C77.3125 304.328 75.6562 301.703 75.6562 296.484C75.6562 294.016 76.1562 290.156 77.1562 284.906C78.1562 279.625 78.6875 276.75 78.75 276.281C75.4375 277.375 72.2656 281.531 69.2344 288.75C68.6094 290.281 67.6094 292.891 66.2344 296.578C64.8906 300.234 63.9375 302.406 63.375 303.094C62.6875 303.906 61.7812 304.312 60.6562 304.312C59.5312 304.312 58.9531 303.906 58.9219 303.094C58.9219 301.594 63.9375 289.156 73.9688 265.781C75.5312 262.094 76.4375 260.031 76.6875 259.594C77.2188 258.562 78.3281 258.609 80.0156 259.734C80.5156 260.078 80.7656 260.422 80.7656 260.766C80.7969 261.109 80.5625 261.656 80.0625 262.406C78.9062 264.219 77.875 266.328 76.9688 268.734L75.1875 273.375L76.6875 271.547C78.0312 269.891 79.1094 268.641 79.9219 267.797C80.7344 266.922 81.4062 266.438 81.9375 266.344C82.5 266.219 83.0781 266.156 83.6719 266.156C84.9531 266.25 85.625 266.938 85.6875 268.219C85.6875 268.844 85.4688 269.688 85.0312 270.75C83.0625 275.281 81.5469 282.141 80.4844 291.328C80.2031 293.953 80.0625 296.266 80.0625 298.266C80.0938 300.234 80.5781 301.234 81.5156 301.266C82.8281 301.266 85.2188 299.234 88.6875 295.172C92.1562 291.078 94.6562 287.688 96.1875 285C96.5938 284.344 97.1719 284 97.9219 283.969C98.7031 284.156 99.1562 284.656 99.2812 285.469ZM107.625 268.875L108.281 268.781C109.906 268.812 110.703 269.266 110.672 270.141C110.641 270.516 110.547 270.906 110.391 271.312C110.234 271.688 109.703 272.844 108.797 274.781C107.672 277.188 107.219 278.844 107.438 279.75V280.031L110.906 274.781C113.156 271.375 114.828 268.906 115.922 267.375C116.234 266.969 116.766 266.766 117.516 266.766C118.266 266.766 118.875 266.969 119.344 267.375C119.844 267.75 120.109 268.047 120.141 268.266L119.859 268.969C114.234 282.625 111.422 292.375 111.422 298.219C111.422 300.656 112.219 302.109 113.812 302.578C115.281 302.984 116.781 302.547 118.312 301.266C122.594 297.828 126.422 293.375 129.797 287.906L130.688 286.406C131 285.906 131.484 285.609 132.141 285.516C132.984 285.516 133.406 285.969 133.406 286.875C133.406 288.5 131.609 291.422 128.016 295.641C124.453 299.828 121.797 302.578 120.047 303.891C118.328 305.203 116.438 305.859 114.375 305.859C112.344 305.859 110.672 304.641 109.359 302.203C108.453 300.516 108 298.562 108 296.344C108 294.125 108.516 291.172 109.547 287.484C110.609 283.766 111.188 281.531 111.281 280.781C111.375 280.031 111.406 279.609 111.375 279.516C109.906 281.422 108.219 284.094 106.312 287.531L102.562 294.141C102 295.047 101.438 295.5 100.875 295.5C99.3125 295.5 98.5312 294.547 98.5312 292.641C98.5312 291.766 99.1406 290.094 100.359 287.625C101.578 285.156 102.188 283.375 102.188 282.281C101.75 283 101 284.359 99.9375 286.359C97.625 290.703 94.5781 294.766 90.7969 298.547C89.3594 299.953 88.0156 300.797 86.7656 301.078C84.9219 300.859 84.3906 300.375 85.1719 299.625C87.2969 297.562 89.0156 295.719 90.3281 294.094C93.0781 290.688 95.0469 286.781 96.2344 282.375C97.4531 277.938 98.1406 275.344 98.2969 274.594C98.4531 273.844 98.75 272.625 99.1875 270.938L100.125 267.609C100.594 265.609 101.125 264.344 101.719 263.812C102.344 263.281 103.062 263.016 103.875 263.016C105.406 263.016 106.172 263.516 106.172 264.516C106.172 265.453 104.984 268.359 102.609 273.234C100.234 278.078 98.7812 281.25 98.25 282.75C98.4375 282.531 98.9844 281.703 99.8906 280.266C100.797 278.828 101.328 277.984 101.484 277.734C101.672 277.484 102.016 276.922 102.516 276.047C105.172 271.266 106.875 268.875 107.625 268.875ZM151.406 272.391C146.406 273.234 142.047 276.516 138.328 282.234C134.703 287.797 132.797 293.297 132.609 298.734C139.766 289.297 146.031 280.516 151.406 272.391ZM149.25 268.406L152.016 268.781C152.453 268.781 152.906 268.531 153.375 268.031C153.875 267.531 154.5 267.281 155.25 267.281C156.031 267.281 156.641 267.484 157.078 267.891C157.547 268.297 157.781 268.656 157.781 268.969C157.781 269.25 157.625 269.734 157.312 270.422C157 271.109 156.812 271.562 156.75 271.781C152.594 284.812 150.516 293.125 150.516 296.719C150.547 297.969 150.828 298.609 151.359 298.641C153.266 298.641 156.25 296.141 160.312 291.141C163.031 287.797 164.781 285.344 165.562 283.781C166.375 282.219 167.016 281.391 167.484 281.297C167.578 281.297 167.656 281.281 167.719 281.25C168.281 281.312 168.578 281.641 168.609 282.234C168.609 283.359 167.312 285.891 164.719 289.828C159.188 298.266 154.406 302.484 150.375 302.484C147.469 302.484 146.016 300.453 146.016 296.391C146.016 294.453 146.406 292.047 147.188 289.172C147.969 286.266 148.438 284.453 148.594 283.734C147.875 284.672 145.469 288.078 141.375 293.953C137.281 299.828 134.344 303.297 132.562 304.359C132 304.672 131.516 304.844 131.109 304.875C129.328 304.875 128.031 304.172 127.219 302.766C126.844 302.078 126.656 301.094 126.656 299.812C126.625 298.5 127.578 295.5 129.516 290.812C132.641 283.25 136.188 277.422 140.156 273.328C143.281 270.141 146.312 268.5 149.25 268.406ZM181.5 273.516L181.406 274.125L181.312 274.688C181.312 275.438 180.219 278.438 178.031 283.688C175.812 288.938 174.719 292.656 174.75 294.844C174.812 298.562 175.719 300.438 177.469 300.469C179.219 300.469 181.781 298.516 185.156 294.609C189.219 289.922 191.703 286.391 192.609 284.016C193.516 281.672 194.219 280.5 194.719 280.5C195.125 280.531 195.344 280.969 195.375 281.812C195.375 282.625 195.281 283.25 195.094 283.688L194.625 284.953C193.281 288.391 191.172 291.969 188.297 295.688C184.141 301.156 180.438 303.891 177.188 303.891C176.156 303.891 175.219 303.625 174.375 303.094C172.25 301.75 171.188 299.219 171.188 295.5C171.188 294.281 171.453 292.406 171.984 289.875C172.547 287.344 172.812 285.984 172.781 285.797C172.781 285.578 172.5 285.344 171.938 285.094C170.812 284.594 170.062 284.531 169.688 284.906C169.375 285.344 167.984 288.719 165.516 295.031C163.078 301.344 161.406 304.5 160.5 304.5C160.219 304.5 159.688 304.312 158.906 303.938C158.094 303.562 157.688 303.047 157.688 302.391C157.688 302.266 158.094 301.312 158.906 299.531L161.484 293.578C163.297 289.391 165.422 283.812 167.859 276.844L174.094 259.219C174.25 258.781 174.75 258.547 175.594 258.516L176.812 258.469C178.312 258.469 179.062 259.016 179.062 260.109C179.062 260.641 178.25 262.984 176.625 267.141C175 271.297 173.953 274.5 173.484 276.75L173.344 278.156C173.344 278.562 173.422 278.797 173.578 278.859C173.672 278.828 174.062 278.141 174.75 276.797L175.969 274.406C176.156 274.125 176.344 273.75 176.531 273.281C177.219 272 178.031 271.359 178.969 271.359C180.594 271.391 181.438 272.062 181.5 273.375V273.516ZM213.891 246.281C215.234 247.219 215.906 248.344 215.906 249.656C215.938 250.938 215.484 251.938 214.547 252.656C212.297 254.281 210.578 255.875 209.391 257.438C208.203 259 207.156 261.422 206.25 264.703C205.375 267.953 204.516 270.562 203.672 272.531C203.953 272.281 204.922 271.969 206.578 271.594C208.234 271.219 209.594 271.031 210.656 271.031C213.875 271.031 215.469 271.984 215.438 273.891C215.406 275.453 214.234 277.578 211.922 280.266C209.609 282.953 206.156 285.75 201.562 288.656C201.375 289.812 201.281 292.062 201.281 295.406C201.281 298.719 201.562 301.859 202.125 304.828C203.281 311.203 205.156 314.391 207.75 314.391C208.438 314.359 209.25 314 210.188 313.312C211.125 312.625 211.719 312.281 211.969 312.281C212.25 312.281 212.625 312.422 213.094 312.703C213.594 312.984 213.844 313.438 213.844 314.062C213.781 316.188 212.078 317.234 208.734 317.203C205.422 317.203 202.828 315.828 200.953 313.078C198.672 309.703 197.188 303.875 196.5 295.594C196.281 292.781 196.094 291.375 195.938 291.375C195.781 291.719 195.156 293.516 194.062 296.766C192.969 300.016 191.953 301.641 191.016 301.641C190.891 301.641 190.703 301.594 190.453 301.5C189.359 301.062 188.812 300.484 188.812 299.766C188.812 299.016 189.047 298.062 189.516 296.906C189.984 295.719 190.328 294.781 190.547 294.094C190.766 293.406 191.672 291.016 193.266 286.922C201.484 265.672 207.703 252.203 211.922 246.516C212.453 245.984 213.109 245.906 213.891 246.281ZM209.766 276.094C209.766 275.75 209.516 275.578 209.016 275.578C208.547 275.547 207.469 275.859 205.781 276.516C204.094 277.172 202.547 278.156 201.141 279.469C200.453 280.125 200.094 281.141 200.062 282.516C200.156 283.234 200.531 283.688 201.188 283.875C201.969 283.844 203.594 282.766 206.062 280.641C208.562 278.484 209.797 276.969 209.766 276.094Z" fill="black"/>
</svg>
