<svg width="1471" height="8420" viewBox="0 0 1471 8420" fill="none" xmlns="http://www.w3.org/2000/svg">
<path d="M1060.48 31.5332C1068.78 28.5081 1073.06 19.3252 1070.03 11.0225C1067.01 2.71993 1057.82 -1.55833 1049.52 1.46679L1060.48 31.5332ZM386.5 971.5L381.578 986.724L386.5 971.5ZM1354.5 2562L1369.48 2556.38L1368.8 2554.58L1367.72 2552.98L1354.5 2562ZM840 3829.5L846.514 3844.11L840 3829.5ZM179.5 4697L189.953 4684.89L189.953 4684.89L179.5 4697ZM1301.5 5994.5L1305.4 6010.02L1305.61 6009.97L1305.81 6009.91L1301.5 5994.5ZM103 6672.5L91.2111 6683.32L103 6672.5ZM1470 8012.5L1463.53 8027.13L1463.53 8027.13L1470 8012.5ZM1049.52 1.46679C765.455 104.968 388.896 277.664 186.828 459.314C86.6669 549.354 23.6818 646.762 46.417 742.182C57.7794 789.87 90.0826 834.323 144.789 874.962C199.411 915.538 277.215 952.979 381.578 986.724L391.423 956.276C288.885 923.121 214.665 887.006 163.871 849.274C113.16 811.603 86.654 772.993 77.5456 734.765C59.3391 658.352 108.766 572.517 208.221 483.111C405.387 305.869 776.877 134.865 1060.48 31.5332L1049.52 1.46679ZM381.578 986.724C640.995 1070.61 837.371 1128.5 986.261 1178.22C1135.22 1227.95 1232.71 1268.32 1293.96 1315.72C1324.23 1339.14 1345.27 1364.02 1359.26 1392.32C1373.27 1420.68 1380.64 1453.36 1382.31 1492.98C1385.69 1573.02 1365.84 1678.36 1333.85 1828.16L1365.15 1834.84C1396.91 1686.14 1417.87 1576.54 1414.28 1491.63C1412.47 1448.77 1404.41 1411.47 1387.94 1378.15C1371.45 1344.77 1346.96 1316.27 1313.54 1290.41C1247.42 1239.24 1144.91 1197.45 996.396 1147.86C847.817 1098.25 649.255 1039.64 391.423 956.276L381.578 986.724ZM1333.85 1828.16C1272.09 2117.35 1015.52 2260.04 756.098 2299.43C626.683 2319.08 498.052 2312.66 395.389 2286.39C291.57 2259.82 218.818 2214.21 194.083 2159.42L164.917 2172.58C195.932 2241.29 281.367 2290.24 387.455 2317.39C494.697 2344.84 627.691 2351.29 760.902 2331.07C1026.73 2290.71 1299.41 2142.65 1365.15 1834.84L1333.85 1828.16ZM194.083 2159.42C143.373 2047.08 227.618 1862 425.029 1845.38C523.722 1837.07 652.218 1871.02 806.748 1981.24C961.272 2091.45 1140.94 2277.35 1341.28 2571.02L1367.72 2552.98C1166.06 2257.4 983.916 2068.3 825.33 1955.18C666.751 1842.08 530.84 1804.36 422.346 1813.49C205.382 1831.75 104.127 2037.92 164.917 2172.58L194.083 2159.42ZM1339.52 2567.62C1401.93 2734.09 1419.75 2982.1 1349.4 3220.65C1279.21 3458.69 1121.53 3686.5 833.486 3814.89L846.514 3844.11C1144.47 3711.3 1307.7 3475.2 1380.1 3229.7C1452.34 2984.72 1434.41 2729.58 1369.48 2556.38L1339.52 2567.62ZM833.486 3814.89C650.237 3896.57 493.121 3971.37 366.543 4042.8C240.177 4114.11 143.098 4182.67 80.8305 4252.2C18.2573 4322.08 -10.4196 4394.49 3.8578 4472.1C17.9332 4548.61 73.1583 4626.36 169.047 4709.11L189.953 4684.89C96.0916 4603.89 47.4417 4532.14 35.3296 4466.31C23.4196 4401.57 46.2427 4338.8 104.67 4273.55C163.402 4207.96 256.823 4141.46 382.269 4070.67C507.504 4000 663.513 3925.68 846.514 3844.11L833.486 3814.89ZM169.047 4709.11C292.883 4815.98 489.35 4932.86 696.794 5051.87C904.943 5171.28 1124.64 5293.11 1297.31 5410.62C1383.61 5469.35 1457.54 5526.6 1512.1 5581.46C1567 5636.65 1600.56 5687.72 1609.24 5733.93C1617.58 5778.34 1603.4 5820.93 1555.51 5862.13C1506.75 5904.08 1423.78 5943.69 1297.19 5979.09L1305.81 6009.91C1433.97 5974.06 1522.31 5932.9 1576.38 5886.39C1631.32 5839.13 1651.5 5785.59 1640.69 5728.02C1630.21 5672.25 1591.11 5615.51 1534.79 5558.89C1478.15 5501.95 1402.33 5443.39 1315.31 5384.16C1141.33 5265.76 920.085 5143.07 712.718 5024.11C504.647 4904.74 311.032 4789.37 189.953 4684.89L169.047 4709.11ZM1297.6 5978.98C1019.45 6048.89 628.416 6121.84 353.081 6225.63C215.864 6277.35 103.27 6338.11 48.3059 6413.02C20.3171 6451.17 6.89654 6493.51 13.3712 6539.84C19.7779 6585.68 45.3765 6633.37 91.2111 6683.32L114.789 6661.68C71.5236 6614.53 50.2607 6572.6 45.0632 6535.41C39.9337 6498.7 50.1662 6464.58 74.1066 6431.95C123.001 6365.31 227.369 6307.21 364.368 6255.57C637.466 6152.63 1023.89 6080.77 1305.4 6010.02L1297.6 5978.98ZM91.2111 6683.32C319.028 6931.59 680.62 6982.16 966.553 6919.44C1109.67 6888.05 1235.75 6827.92 1317.77 6748.02C1400.23 6667.7 1438.94 6566.24 1402.71 6455.52L1372.29 6465.48C1403.81 6561.76 1371.52 6650.99 1295.45 6725.09C1218.94 6799.61 1098.95 6857.64 959.697 6888.18C680.88 6949.34 332.472 6898.91 114.789 6661.68L91.2111 6683.32ZM1402.71 6455.52C1393.45 6427.23 1378.86 6405.18 1359.4 6389.8C1339.91 6374.41 1316.55 6366.53 1291.1 6364.94C1240.85 6361.8 1181.63 6383.08 1121.98 6420.81C1002.2 6496.58 872.928 6643.5 796.026 6824.3C718.988 7005.42 693.948 7221.97 785.251 7436.03C876.535 7650.06 1082.97 7858.93 1463.53 8027.13L1476.47 7997.87C1100.78 7831.82 901.84 7627.82 814.686 7423.48C727.552 7219.19 751.011 7011.89 825.473 6836.82C900.071 6661.44 1025.3 6519.83 1139.08 6447.86C1196.21 6411.72 1248.54 6394.34 1289.11 6396.87C1309.07 6398.12 1325.94 6404.16 1339.56 6414.92C1353.21 6425.7 1364.62 6442.02 1372.29 6465.48L1402.71 6455.52ZM1463.53 8027.13C1766 8160.82 1955.94 8251.41 2065.26 8311.25C2120.18 8341.31 2153.68 8363.04 2170.92 8378.11C2175.14 8381.81 2178.09 8384.84 2180.04 8387.25C2181 8388.44 2181.65 8389.38 2182.06 8390.08C2182.48 8390.78 2182.59 8391.12 2182.59 8391.11C2182.54 8390.98 2182.06 8389.17 2183.07 8386.82C2183.99 8384.66 2185.32 8384.03 2184.86 8384.29C2183.33 8385.17 2178.52 8386.69 2168.4 8387.36C2158.88 8387.99 2146.58 8387.77 2131.75 8386.77C2102.12 8384.76 2064.02 8379.74 2021.09 8373.11C1936.63 8360.08 1830.59 8340.3 1741.84 8327.17L1737.16 8358.83C1827.49 8372.2 1928.56 8391.21 2016.21 8404.74C2059.33 8411.39 2098.54 8416.59 2129.59 8418.69C2145.1 8419.74 2158.98 8420.05 2170.51 8419.29C2181.43 8418.57 2192.52 8416.78 2200.77 8412.06C2205.19 8409.52 2209.88 8405.52 2212.51 8399.36C2215.21 8393.01 2214.78 8386.59 2213 8381.16C2209.83 8371.47 2201.59 8362.42 2191.98 8354.02C2171.89 8336.46 2135.67 8313.31 2080.63 8283.18C1970.02 8222.63 1779 8131.58 1476.47 7997.87L1463.53 8027.13Z" fill="#E04545"/>
</svg>
